<?xml version="1.0" standalone="no"?>
<svg width="1552px" height="1166px" viewBox="0 0 1552 1166" version="1.1" xmlns="http://www.w3.org/2000/svg" xmlns:xlink="http://www.w3.org/1999/xlink">
    <!-- Generator: Sketch 63.1 (92452) - https://sketch.com -->
    <title>Sport Cycling</title>
    <desc>Created by Webpixels.</desc>
    <g id="Page-1" stroke="none" stroke-width="1" fill="none" fill-rule="evenodd">
        <g id="sport-cycling">
            <line x1="336" y1="1164.1" x2="643.1" y2="1164.1" id="Path" stroke="#CED5E5" stroke-width="3" stroke-linecap="round" stroke-linejoin="round"></line>
            <line x1="895.9" y1="1164.1" x2="1251.7" y2="1164.1" id="Path" stroke="#CED5E5" stroke-width="3" stroke-linecap="round" stroke-linejoin="round"></line>
            <path d="M897.3,300.5 L1066.8,548.9 L1027.9,564.3 L836.6,346.5 C836.5,346.4 838.1,298.9 897.3,300.5 Z" id="Path" fill="#FE8163" fill-rule="nonzero"></path>
            <path d="M1065.4,549.4 C1065.4,549.4 1084.1,561.9 1086,574.4 C1087.9,586.9 1078.4,595.2 1078.4,595.2 L1041.3,577 L1028.5,559.6 L1065.4,549.4 Z" id="Path" fill="#FFDFD7" fill-rule="nonzero"></path>
            <path d="M1053.6,566.6 C1053.6,566.6 1087.8,571.4 1082.6,594.2 C1077.3,617 1067.7,623.3 1059.2,625.2 C1050.7,627 1039.4,622.1 1045.6,608.2 C1051.8,594.3 1020.4,576.4 1020.4,576.4 C1020.4,576.4 1033.3,563.3 1053.6,566.6 Z" id="Path" fill="#FFDFD7" fill-rule="nonzero"></path>
            <path d="M83.3,749.7 C54.4,625.1 158.8,466.9 270.4,446.7 C331.5,435.6 343.3,475.1 437.2,489.4 C615.4,516.5 712.8,395.3 789.1,446.7 C849.9,487.7 798.2,571.6 856.2,629.7 C955,728.8 1174,554.4 1362.6,639.9 C1450.4,679.7 1557.8,770.9 1551.7,884 C1545.5,999.6 1423.5,1099.3 1319.8,1099.6 C1219.7,1099.9 1202.6,1007.2 1092,993.8 C963.1,978.2 932.8,1097.6 778.8,1121.9 C668,1139.4 563.3,1081.8 353.7,966.7 C185.5,874.2 101.1,826.5 83.3,749.7 Z" id="Path" fill="#F1F2F7" fill-rule="nonzero"></path>
            <polygon id="Path" fill="#FFDFD7" fill-rule="nonzero" points="697.1 921 685.5 947.7 713.2 955.1 725.5 949.5 739.8 927.8"></polygon>
            <path d="M688.2,941.3 C688.2,941.3 682.5,939.5 677.9,954.8 C673.3,970.1 671.7,974.7 671.7,974.7 L778.6,1012.6 C778.6,1012.6 783.7,992.4 768.2,979.5 C752.7,966.6 725.4,949.4 725.4,949.4 C725.4,949.4 707.9,952.5 688.2,941.3 Z" id="Path" fill="#FE8163" fill-rule="nonzero"></path>
            <polygon id="Path" fill="#5900CC" fill-rule="nonzero" points="647.4 608.5 768.9 761.2 687.2 923.7 752.7 930.6 850.3 761.2 746.2 610.3 675 565.3"></polygon>
            <g id="Group" transform="translate(921.000000, 772.000000)" fill-rule="nonzero">
                <rect id="Rectangle" fill="#CED5E5" x="195.1" y="18.9" width="2.7" height="177.2"></rect>
                <rect id="Rectangle" fill="#CED5E5" transform="translate(152.116200, 119.287300) rotate(-30.000728) translate(-152.116200, -119.287300) " x="150.76623" y="30.6892492" width="2.6999406" height="177.196102"></rect>
                <rect id="Rectangle" fill="#CED5E5" transform="translate(119.780700, 151.816700) rotate(-59.999272) translate(-119.780700, -151.816700) " x="118.43073" y="63.2186492" width="2.6999406" height="177.196102"></rect>
                <rect id="Rectangle" fill="#CED5E5" x="19.3" y="194.7" width="177.2" height="2.7"></rect>
                <rect id="Rectangle" fill="#CED5E5" transform="translate(119.788400, 240.272400) rotate(-30.000728) translate(-119.788400, -240.272400) " x="31.1903492" y="238.92243" width="177.196102" height="2.6999406"></rect>
                <rect id="Rectangle" fill="#CED5E5" transform="translate(152.271020, 272.780075) rotate(-59.994310) translate(-152.271020, -272.780075) " x="63.6685388" y="271.430037" width="177.204962" height="2.70007561"></rect>
                <rect id="Rectangle" fill="#CED5E5" x="195.1" y="196" width="2.7" height="177.2"></rect>
                <rect id="Rectangle" fill="#CED5E5" transform="translate(240.749600, 272.762400) rotate(-30.000728) translate(-240.749600, -272.762400) " x="239.39963" y="184.164349" width="2.6999406" height="177.196102"></rect>
                <rect id="Rectangle" fill="#CED5E5" transform="translate(273.121900, 240.380200) rotate(-59.999272) translate(-273.121900, -240.380200) " x="271.77193" y="151.782149" width="2.6999406" height="177.196102"></rect>
                <rect id="Rectangle" fill="#CED5E5" x="196.5" y="194.7" width="177.2" height="2.7"></rect>
                <rect id="Rectangle" fill="#CED5E5" transform="translate(273.175300, 151.688000) rotate(-30.000728) translate(-273.175300, -151.688000) " x="184.577249" y="150.33803" width="177.196102" height="2.6999406"></rect>
                <rect id="Rectangle" fill="#CED5E5" transform="translate(240.882580, 119.343135) rotate(-59.994310) translate(-240.882580, -119.343135) " x="152.280099" y="117.993097" width="177.204962" height="2.70007561"></rect>
                <path d="M196.5,0 C88.2,0 0.5,87.8 0.5,196 C0.5,304.3 88.3,392 196.5,392 C304.8,392 392.5,304.2 392.5,196 C392.5,87.8 304.8,0 196.5,0 Z M196.5,366.9 C102.1,366.9 25.7,290.4 25.7,196.1 C25.7,101.7 102.2,25.3 196.5,25.3 C290.9,25.3 367.3,101.8 367.3,196.1 C367.3,290.4 290.8,366.9 196.5,366.9 Z" id="Shape" fill="#283444"></path>
            </g>
            <g id="Group" transform="translate(317.000000, 772.000000)" fill-rule="nonzero">
                <rect id="Rectangle" fill="#CED5E5" x="194.8" y="18.9" width="2.7" height="177.2"></rect>
                <rect id="Rectangle" fill="#CED5E5" transform="translate(151.826200, 119.266700) rotate(-30.000728) translate(-151.826200, -119.266700) " x="150.47623" y="30.6686492" width="2.6999406" height="177.196102"></rect>
                <rect id="Rectangle" fill="#CED5E5" transform="translate(119.459500, 151.763000) rotate(-59.999272) translate(-119.459500, -151.763000) " x="118.10953" y="63.1649492" width="2.6999406" height="177.196102"></rect>
                <rect id="Rectangle" fill="#CED5E5" x="19" y="194.7" width="177.2" height="2.7"></rect>
                <rect id="Rectangle" fill="#CED5E5" transform="translate(119.415000, 240.307400) rotate(-30.000728) translate(-119.415000, -240.307400) " x="30.8169492" y="238.95743" width="177.196102" height="2.6999406"></rect>
                <rect id="Rectangle" fill="#CED5E5" transform="translate(151.926190, 272.749375) rotate(-59.994310) translate(-151.926190, -272.749375) " x="63.3237088" y="271.399337" width="177.204962" height="2.70007561"></rect>
                <rect id="Rectangle" fill="#CED5E5" x="194.8" y="196" width="2.7" height="177.2"></rect>
                <rect id="Rectangle" fill="#CED5E5" transform="translate(240.457600, 272.744800) rotate(-30.000728) translate(-240.457600, -272.744800) " x="239.10763" y="184.146749" width="2.6999406" height="177.196102"></rect>
                <rect id="Rectangle" fill="#CED5E5" transform="translate(272.800400, 240.328200) rotate(-59.999272) translate(-272.800400, -240.328200) " x="271.45043" y="151.730149" width="2.6999406" height="177.196102"></rect>
                <rect id="Rectangle" fill="#CED5E5" x="196.1" y="194.7" width="177.2" height="2.7"></rect>
                <rect id="Rectangle" fill="#CED5E5" transform="translate(272.888500, 151.673000) rotate(-30.000728) translate(-272.888500, -151.673000) " x="184.290449" y="150.32303" width="177.196102" height="2.6999406"></rect>
                <rect id="Rectangle" fill="#CED5E5" transform="translate(240.487840, 119.399335) rotate(-59.994310) translate(-240.487840, -119.399335) " x="151.885359" y="118.049297" width="177.204962" height="2.70007561"></rect>
                <path d="M196.1,0 C87.8,0 0.1,87.8 0.1,196 C0.1,304.3 87.9,392 196.1,392 C304.3,392 392.100085,304.2 392.100085,196 C392.2,87.8 304.4,0 196.1,0 Z M196.1,366.9 C101.7,366.9 25.3,290.4 25.3,196.1 C25.3,101.7 101.8,25.3 196.1,25.3 C290.5,25.3 366.900098,101.8 366.900098,196.1 C367,290.4 290.5,366.9 196.1,366.9 Z" id="Shape" fill="#283444"></path>
            </g>
            <path d="M528.7,963.1 C527,963.1 525.3,962.6 523.7,961.6 C519.6,958.9 518.4,953.3 521.2,949.2 L676.5,715.3 C679.2,711.2 684.8,710 688.9,712.8 C693,715.5 694.2,721.1 691.4,725.2 L536.2,959 C534.4,961.6 531.6,963.1 528.7,963.1 Z" id="Path" fill="#52CB96" fill-rule="nonzero"></path>
            <path d="M768.2,1014.9 C764.4,1014.9 760.9,1012.5 759.6,1008.6 L632.6,604.8 C631.1,600.1 633.7,595 638.5,593.6 C643.2,592.1 648.3,594.7 649.7,599.5 L776.7,1003.3 C778.2,1008 775.6,1013.1 770.8,1014.5 C770,1014.8 769.1,1014.9 768.2,1014.9 Z" id="Path" fill="#52CB96" fill-rule="nonzero"></path>
            <path d="M684,729.2 C679.6,729.2 675.7,725.9 675.1,721.4 C674.4,716.5 677.9,712 682.8,711.3 L994.3,668.6 C999.2,667.9 1003.7,671.4 1004.4,676.3 C1005.1,681.2 1001.6,685.7 996.7,686.4 L685.2,729.1 C684.8,729.1 684.4,729.2 684,729.2 Z" id="Path" fill="#52CB96" fill-rule="nonzero"></path>
            <path d="M1123.6,983.4 C1120.3,983.4 1117,981.5 1115.5,978.3 L1027.2,793.9 C1027.1,793.6 1026.9,793.3 1026.8,793 L971.7,634.7 C970.2,630.5 972.1,625.8 976.1,623.8 L1043.2,589.2 C1047.6,586.9 1053,588.7 1055.3,593.1 C1057.6,597.5 1055.8,602.9 1051.4,605.2 L991.2,636.2 L1043.6,786.6 L1131.6,970.6 C1133.7,975.1 1131.8,980.4 1127.4,982.6 C1126.2,983.1 1124.9,983.4 1123.6,983.4 Z" id="Path" fill="#52CB96" fill-rule="nonzero"></path>
            <path d="M768.2,1014.9 C766.1,1014.9 764.1,1014.2 762.4,1012.7 C758.6,1009.5 758.2,1003.8 761.4,1000.1 L1004.9,716.1 C1008.1,712.3 1013.8,711.9 1017.5,715.1 C1021.3,718.3 1021.7,724 1018.5,727.7 L775,1011.7 C773.2,1013.9 770.7,1014.9 768.2,1014.9 Z" id="Path" fill="#52CB96" fill-rule="nonzero"></path>
            <path d="M564.8,576.8 C564.8,576.8 566.9,608.8 635.1,608.8 C703.3,608.8 721.4,576.8 721.4,576.8 L564.8,576.8 Z" id="Path" fill="#283444" fill-rule="nonzero"></path>
            <circle id="Oval" fill="#283444" fill-rule="nonzero" cx="1047.3" cy="597.1" r="18.1"></circle>
            <path d="M768.2,1014.9 C767.8,1014.9 767.4,1014.9 767,1014.8 L520.1,980.5 C515.2,979.8 511.8,975.3 512.5,970.4 C513.2,965.5 517.7,962.1 522.6,962.8 L769.5,997.1 C774.4,997.8 777.8,1002.3 777.1,1007.2 C776.4,1011.7 772.6,1014.9 768.2,1014.9 Z" id="Path" fill="#52CB96" fill-rule="nonzero"></path>
            <circle id="Oval" fill="#CED5E5" fill-rule="nonzero" cx="1117.5" cy="968" r="26.8"></circle>
            <circle id="Oval" fill="#CED5E5" fill-rule="nonzero" cx="513.1" cy="968" r="26.8"></circle>
            <circle id="Oval" fill="#CED5E5" fill-rule="nonzero" cx="768.2" cy="1005.9" r="60.5"></circle>
            <polygon id="Path" fill="#FFDFD7" fill-rule="nonzero" points="849.6 952.1 846.2 983.4 877.2 982.2 888.2 972.5 895.9 945.4"></polygon>
            <path d="M739.9,540.7 L947.9,671.1 L901.4,945.4 L841.3,953.2 L869.3,714.4 L639.4,598.1 C578.3,576.8 569,552.9 571.3,523.7 C573.6,494.5 592.5,475.6 592.5,475.6 L739.9,540.7 Z" id="Path" fill="#5900CC" fill-rule="nonzero"></path>
            <g id="Group" transform="translate(486.000000, 941.000000)">
                <path d="M22.1,53.3 C9.7,50.9 0.4,40.1 0.4,27 C0.4,12.2 12.4,0.2 27.2,0.2 L282.2,4.4 C315.6,4.4 342.7,31.5 342.7,64.9 C342.7,98.3 315.6,125.4 282.2,125.4 C276.3,125.4 270.7,124.6 265.3,123 L22.1,53.3 Z" id="Path" stroke="#283444" stroke-width="3" stroke-linecap="round" stroke-linejoin="round"></path>
                <circle id="Oval" stroke="#283444" stroke-width="3" stroke-linecap="round" stroke-linejoin="round" cx="282.2" cy="64.9" r="12.7"></circle>
                <line x1="282.2" y1="64.9" x2="390" y2="83.2" id="Path" stroke="#283444" stroke-width="3" stroke-linecap="round" stroke-linejoin="round"></line>
                <path d="M406.3,91.1 L373.5,91.1 C371.5,91.1 369.9,89.5 369.9,87.5 L369.9,77.7 C369.9,75.7 371.5,74.1 373.5,74.1 L406.3,74.1 C408.3,74.1 409.9,75.7 409.9,77.7 L409.9,87.5 C409.9,89.5 408.3,91.1 406.3,91.1 Z" id="Path" fill="#283444" fill-rule="nonzero"></path>
            </g>
            <path d="M1053.6,566.6 C1053.6,566.6 1082.6,570.6 1083.1,589.1" id="Path" stroke="#FFFFFF" stroke-width="3" stroke-linecap="round" stroke-linejoin="round"></path>
            <path d="M592.3,475.4 C592.3,475.4 726.2,284.9 882.2,267.1 C882.2,267.1 914.9,274.8 900.2,316.5 C900.2,316.5 789.1,446.6 740,540.7 C739.9,540.7 604.3,499.9 592.3,475.4 Z" id="Path" fill="#FE8163" fill-rule="nonzero"></path>
            <line x1="658.9" y1="607.9" x2="779.3" y2="669.2" id="Path" stroke="#8B34FF" stroke-width="3" stroke-linecap="round" stroke-linejoin="round"></line>
            <path d="M879.7,267.4 L897.5,250.3 L911.6,255.5 L903.8,294.7 C903.9,294.6 878,283.8 879.7,267.4 Z" id="Path" fill="#FFDFD7" fill-rule="nonzero"></path>
            <path d="M901.1,259.1 C901.1,259.1 923.4,287.3 938,284.8 C952.6,282.3 962.4,212.8 961.1,193.8 C959.7,174.8 918.7,167.4 904.2,178.2 C889.7,189 887.9,231.9 901.1,259.1 Z" id="Path" fill="#FFDFD7" fill-rule="nonzero"></path>
            <path d="M895.6,322.1 L1058.2,565.3 L1018,577 L830.8,362.2 C830.8,362.2 836.8,315 895.6,322.1 Z" id="Path" fill="#FE8163" fill-rule="nonzero"></path>
            <path d="M897.1,249.7 C897.1,249.7 884.7,230.3 886.6,216 C888.5,201.7 897.6,182 923.2,178.8 C948.8,175.6 961.9,201.5 961.9,201.5 L929.2,212.8 L920.3,232.8 C920.3,232.8 919.4,216.8 911.2,216.5 C902.9,216.2 900.1,224.9 906,235.2 C911.9,245.5 916.2,243.4 916.2,243.4 C916.2,243.4 911.6,249.1 906.8,251.2 C902.3,253.1 897.6,251.4 897.1,249.7 Z" id="Path" fill="#283444" fill-rule="nonzero"></path>
            <path d="M877.2,220.9 L968.7,200.1 C968.7,200.1 968.7,169.3 940.7,163.7 C912.7,158.1 886.4,177.2 877.2,220.9 Z" id="Path" fill="#8B34FF" fill-rule="nonzero"></path>
            <polygon id="Path" fill="#8B34FF" fill-rule="nonzero" points="926.6 209.6 916.3 274.8 918.8 276.9 931 208.1"></polygon>
            <polyline id="Path" stroke="#FF562F" stroke-width="3" stroke-linecap="round" points="830.8 362.2 1018 577 1058.1 565.3 895.6 322.1"></polyline>
            <path d="M847,975.9 C847,975.9 840.6,975.9 840.69884,993.2 C840.8,1010.5 840.69884,1015.7 840.69884,1015.7 L963.4,1020.6 C963.4,1020.6 962.2,998.1 942.1,989.8 C921.9,981.5 888.2,972.4 888.2,972.4 C888.2,972.4 870.9,981.2 847,975.9 Z" id="Path" fill="#FE8163" fill-rule="nonzero"></path>
            <line x1="667.2" y1="1164.1" x2="732" y2="1164.1" id="Path" stroke="#CED5E5" stroke-width="3" stroke-linecap="round" stroke-linejoin="round"></line>
            <path d="M146.7,5.3 C146.7,5.3 265.5,92.4 245.1,162.7 C224.8,233.1 178,310.3 216.6,373.4 C255.2,436.5 287.8,534.8 257.3,597.1 C227.8,657.4 186.1,692.7 131.2,688.6 C76.3,684.5 -35.5,629.6 11.3,456.7 C58.1,283.8 83.4,259.9 63.1,191.7 C42.8,123.5 72.7,-29.3 146.7,5.3 Z" id="Path" fill="#52CB96" fill-rule="nonzero"></path>
            <g id="Group" transform="translate(71.000000, 373.000000)" stroke="#37B37F" stroke-linecap="round" stroke-linejoin="round" stroke-width="7">
                <line x1="59.8" y1="749.1" x2="59.8" y2="0.4" id="Path"></line>
                <line x1="59.8" y1="199.3" x2="0.8" y2="124.5" id="Path"></line>
                <line x1="59.8" y1="102.6" x2="99.4" y2="38.1" id="Path"></line>
            </g>
            <line x1="85.6" y1="1125" x2="191.6" y2="1125" id="Path" stroke="#CED5E5" stroke-width="3" stroke-linecap="round" stroke-linejoin="round"></line>
            <path d="M770.7,122 C759.3,96.1 722.1,80.8 689.9,84 C649.5,88 627.9,121.6 613.2,110.5 C603.5,103.2 610,89.8 599.6,75.2 C583.6,52.7 540.4,45.3 509.3,58.9 C472,75.2 472,113 444.1,115.2 C420.3,117.1 412.7,90.1 386.4,93.5 C366.8,96 350.1,113.6 343.6,130.8 C341.2,137.2 340.2,143.5 340,148.7 L774,148.7 C775.2,141.8 774.9,131.7 770.7,122 Z" id="Path" fill="#F1F2F7" fill-rule="nonzero"></path>
            <path d="M1430.1,291.3 C1398.2,286 1378.6,302.8 1355.4,287.5 C1340.5,277.7 1344.4,268 1329.1,254.7 C1296.9,226.8 1247.1,241.3 1243.4,242.5 C1202.2,255.1 1196.5,285 1163.2,284.4 C1141.5,284 1138,271.2 1118.3,272.2 C1088.8,273.6 1056.4,304.2 1052.7,325.6 L1490.4,325.6 C1481.3,312 1455,295.4 1430.1,291.3 Z" id="Path" fill="#F1F2F7" fill-rule="nonzero"></path>
        </g>
    </g>
</svg>